<svg width="20" height="20" xmlns="http://www.w3.org/2000/svg"><path d="M10 .5c.872 0 1.713.114 2.523.343a9.35 9.35 0 012.273.956 9.112 9.112 0 011.92 1.484 9.113 9.113 0 011.485 1.92c.414.706.733 1.463.956 2.274A9.24 9.24 0 0119.5 10a9.28 9.28 0 01-.343 2.524 9.355 9.355 0 01-.956 2.273 9.331 9.331 0 01-1.484 1.93 9.54 9.54 0 01-1.92 1.484 9.872 9.872 0 01-2.274.955A9.482 9.482 0 0110 19.5a9.481 9.481 0 01-2.523-.334 9.87 9.87 0 01-2.273-.955 9.776 9.776 0 01-1.93-1.485 9.776 9.776 0 01-1.485-1.93 9.916 9.916 0 01-.955-2.263A9.517 9.517 0 01.5 10c0-.872.111-1.713.334-2.523a9.87 9.87 0 01.955-2.273 9.54 9.54 0 011.485-1.92 9.329 9.329 0 011.93-1.485A9.395 9.395 0 017.467.843 9.274 9.274 0 0110 .5z" fill="#e1e1e1"/><path d="M10 .5C4.763.5.5 4.763.5 10c0 5.236 4.263 9.5 9.5 9.5s9.5-4.264 9.5-9.5c0-5.237-4.263-9.5-9.5-9.5zm0 1.71A7.776 7.776 0 0117.79 10 7.776 7.776 0 0110 17.79 7.776 7.776 0 012.21 10 7.776 7.776 0 0110 2.21z" fill="#5d5d5d"/>
<!-- (C) Collabora Productivity 2020, All Rights Reserved -->
</svg>