<svg width="24" height="24" xmlns="http://www.w3.org/2000/svg" xmlns:xlink="http://www.w3.org/1999/xlink"><defs><path d="M10.67 5.438l-5.853 5.876-2.13-2.13L8.561 3.33l2.107 2.107zm1.38-2.365c.14.14.207.312.2.515a.785.785 0 01-.246.539L10.95 5.18 8.82 3.05l1.053-1.054a.785.785 0 01.539-.245.662.662 0 01.515.199l1.123 1.123zM2.5 9.511l1.989 1.99-2.739.749.75-2.739z" id="a"/></defs><g fill="none" fill-rule="evenodd"><circle fill="#F7F7F7" cx="12" cy="12" r="12"/><g transform="translate(5 5)"><mask id="b" fill="#fff"><use xlink:href="#a"/></mask><use fill="#333" xlink:href="#a"/><g mask="url(#b)" fill="#333"><path d="M0 0h14v14H0z"/></g></g></g>
<!-- (C) Collabora Productivity 2020, All Rights Reserved -->
</svg>