<svg width="21" height="21" version="1.1" xmlns="http://www.w3.org/2000/svg">
 <g fill-opacity=".94118">
  <path d="m13.047 0a0.601 0.601 0 0 0-0.42188 0.17578l-1.7559 1.8477 0.74414 0.74414 1.9043 1.9863 0.93164 0.93359 1.7148-1.791a0.64 0.64 0 0 0 0-0.86719l-2.707-2.8535a0.564 0.564 0 0 0-0.41016-0.17578zm-3.2871 3.1777-6.5801 6.8516a0.67 0.67 0 0 0-0.16992 0.42578s0.014858 0.17118 0.33789 0.62891l-2.2676 3.3809h4.0547l0.60547-0.90234c0.40939 0.32013 0.57031 0.36523 0.57031 0.36523a0.551 0.551 0 0 0 0.4082-0.17578l6.623-6.9102-0.96875-0.9707-1.9043-1.9844z" fill="#4c566f"/>
  <path d="m16.332 7.1523c-1.556 2.112-2.332 3.597-2.332 4.457a2.333 2.333 0 0 0 2.332 2.334 2.333 2.333 0 0 0 2.334-2.334c0-0.86-0.77798-2.345-2.334-4.457z" fill="#4d82b8"/>
 </g>

<!-- (C) Collabora Productivity 2020, All Rights Reserved -->
</svg>
