<svg version="1.1" viewBox="0 0 24 24" xmlns="http://www.w3.org/2000/svg">
 <path d="M6.396 0A2.705 2.705 0 005.19.264c-.73.35-1.305.964-1.697 1.674-.392.71-.608 1.525-.521 2.338s.532 1.632 1.355 2.107l1.053.608-1.992 3.503-.002.002c-.605 1.078-.153 2.378.75 3.002l.031.022 7.15 4.191.02.01c.509.268 1.13.322 1.654.139.525-.183.938-.562 1.223-1.018l.01-.017 4.902-8.622.488-.857L8.787.998 7.668.352A2.613 2.613 0 006.397 0zm3.125 3.748l7.323 4.291s-2.817 1.467-5.95.81c-3.132-.655-5.31 1.827-5.31 1.827z" fill="#4c566a"/>
 <path d="M20.118 9.762l-.98 3.655c-.276 1.033 1.791 1.587 2.068.554.745-2.806-1.088-4.21-1.088-4.21z" fill="#4d82b8"/>

<!-- (C) Collabora Productivity 2020, All Rights Reserved -->
</svg>
