<svg width="24" height="24" xmlns="http://www.w3.org/2000/svg"><path d="M15.65 16.269l-8.42-5.235-2.067 2.962-1.033.339 6.178 7.702s.588.874 1.998-1.189z" fill="#88c0d0"/><g fill="#4d4d4d"><path d="M18.902 1.78a.942.908 0 00-.765.414l-5.651 8.17a.942.908 0 101.567 1.008l5.65-8.17a.942.908 0 00-.801-1.423z" color="#000" style="font-feature-settings:normal;font-variant-alternates:normal;font-variant-caps:normal;font-variant-ligatures:normal;font-variant-numeric:normal;font-variant-position:normal;isolation:auto;mix-blend-mode:normal;shape-padding:0;text-decoration-color:#000;text-decoration-line:none;text-decoration-style:solid;text-indent:0;text-orientation:mixed;text-transform:none;white-space:normal"/><path d="M7.62 9.96l8.475 5.447s-1.34-4.372-1.043-5.479-.66-1.917-1.56-1.016S7.62 9.96 7.62 9.96z"/><path d="M7.62 9.96l8.475 5.447.482-.834-8.475-5.36z"/></g>
<!-- (C) Collabora Productivity 2020, All Rights Reserved -->
</svg>
