<svg version="1.1" viewBox="0 0 24 24" xmlns="http://www.w3.org/2000/svg">
 <path d="m13.566 1.6973-0.30664 0.041016s-0.30362 0.042992-0.63086 0.11719c-0.16362 0.037098-0.33478 0.082089-0.48438 0.13867-0.1496 0.056583-0.28931 0.093136-0.39453 0.27539-0.05336 0.092427-0.06115 0.15498-0.07813 0.24414-0.01697 0.089165-0.03 0.19437-0.04297 0.31055-0.02594 0.23235-0.04651 0.51176-0.0625 0.7832-0.02605 0.44219-0.03468 0.71657-0.03906 0.85742-0.71517 0.059888-1.3802 0.17323-1.9414 0.4043-0.61942 0.25505-1.1424 0.58295-1.5625 0.98438-0.41663 0.39811-0.73602 0.85229-0.95117 1.3574v0.00195c-0.20447 0.49258-0.30859 1.0005-0.30859 1.5156 0 0.70377 0.12194 1.3061 0.38281 1.7988l0.0039 4e-3c0.26139 0.46676 0.60404 0.86329 1.0254 1.1816 0.41497 0.31354 0.88586 0.56609 1.4062 0.75781v2e-3h0.00195c0.44011 0.15443 0.88507 0.28537 1.332 0.40625l-0.30664 4.25c-0.34899-0.060538-0.68897-0.1258-0.95116-0.23451-0.33987-0.1532-0.63057-0.30579-0.87109-0.45508-0.25126-0.15595-0.46287-0.29315-0.63281-0.41211-0.18625-0.13651-0.36092-0.23047-0.5625-0.23047-0.19407 0-0.37843 0.04709-0.53125 0.14844-0.14103 0.0851-0.26081 0.20664-0.36133 0.35742v2e-3l-0.60547 0.93941 0.13086 0.14258c0.52263 0.56847 1.1684 1.0339 1.9297 1.3965 0.69954 0.32919 1.4752 0.51687 2.2891 0.62891l-0.20508 2.8477 0.29102-0.02344s0.30097-0.02392 0.63086-0.08984c0.16494-0.03296 0.33722-0.07684 0.49414-0.13867 0.15692-0.06183 0.30983-0.12896 0.41016-0.30273 0.05724-0.09914 0.05868-0.15437 0.07422-0.24219 0.01554-0.08781 0.02851-0.19307 0.04102-0.31055 0.025-0.23496 0.04742-0.5213 0.06445-0.80078 0.02807-0.46076 0.03576-0.75759 0.04101-0.89844 0.66526-0.06746 1.2965-0.18666 1.8535-0.41602h2e-3c0.61865-0.26386 1.1573-0.60249 1.6093-1.0176v-2e-3h2e-3c0.45097-0.42336 0.7996-0.91262 1.041-1.459v-2e-3c0.25112-0.54942 0.37891-1.1434 0.37891-1.7715 0-0.67029-0.13429-1.2494-0.41406-1.7246-0.26286-0.46939-0.6189-0.85895-1.0605-1.1602-0.42197-0.30218-0.89807-0.54484-1.4238-0.72656-0.44891-0.16254-0.90364-0.30593-1.3594-0.44141l0.2793-3.9746c0.24166 0.049061 0.48922 0.095869 0.67188 0.17578h2e-3c0.28074 0.1191 0.51538 0.23728 0.70312 0.35156l4e-3 0.0039c0.20652 0.12047 0.37688 0.227 0.50976 0.31836l0.0078 0.00391 0.0078 0.00586c0.17108 0.10064 0.33324 0.16406 0.50781 0.16406 0.16431 0 0.32865-0.043421 0.45312-0.15234l2e-3 -0.00195c0.09774-0.08688 0.18576-0.19075 0.26562-0.31055l2e-3 -0.00391 0.63086-1.0273-0.13867-0.13867c-0.44347-0.44311-0.98195-0.81037-1.6096-1.1015-0.56007-0.25974-1.1916-0.41438-1.8535-0.52148zm-2.2031 5.0352-0.25195 3.4473c-0.18216-0.063537-0.36947-0.12325-0.53711-0.19336l-0.0039-0.00195c-0.0013-5.331e-4 -0.0026-0.00142-0.0039-0.00195-0.24393-0.11442-0.45588-0.2405-0.63867-0.375-0.16651-0.13706-0.29404-0.28817-0.39064-0.45704-0.084852-0.17103-0.13281-0.36762-0.13281-0.60547 0-0.23436 0.040496-0.45439 0.11719-0.66211 2.194e-4 -5.942e-4 -2.2e-4 -0.00136 0-0.00195 0.082636-0.19984 0.2041-0.38087 0.37109-0.54883l0.00195-0.00195c6.851e-4 -6.87e-4 0.00127-0.00127 0.00195-0.00195 0.17313-0.16459 0.40047-0.30559 0.68946-0.41798h2e-3l0.0039-0.00195c0.20599-0.085828 0.49136-0.12908 0.77148-0.17578zm0.90234 5.9922c-8.1771 7.5169-4.0885 3.7585 0 0zm0.45312 0.66992c0.20859 0.0687 0.42133 0.13507 0.60938 0.21484l0.0078 4e-3c0.28023 0.10715 0.51314 0.23203 0.70117 0.37305l4e-3 4e-3c0.19243 0.13855 0.33726 0.2984 0.44141 0.48438l2e-3 0.0059 0.0039 0.0039c0.10329 0.16525 0.16016 0.36977 0.16016 0.63086 0 0.27566-0.05144 0.5289-0.15234 0.76953v2e-3l-2e-3 2e-3c-0.09054 0.22635-0.23184 0.4311-0.43555 0.61914-0.19202 0.17666-0.44688 0.33181-0.76562 0.46289-9.56e-4 3.93e-4 -9.97e-4 0.0016-2e-3 2e-3 -0.23143 0.0885-0.53649 0.12792-0.83984 0.16992z" color="#000000" color-rendering="auto" dominant-baseline="auto" fill="#b7b84d" image-rendering="auto" shape-rendering="auto" solid-color="#000000" style="font-feature-settings:normal;font-variant-alternates:normal;font-variant-caps:normal;font-variant-ligatures:normal;font-variant-numeric:normal;font-variant-position:normal;isolation:auto;mix-blend-mode:normal;shape-padding:0;text-decoration-color:#000000;text-decoration-line:none;text-decoration-style:solid;text-indent:0;text-orientation:mixed;text-transform:none;white-space:normal"/>

<!-- (C) Collabora Productivity 2020, All Rights Reserved -->
</svg>
