<svg viewBox="0 0 24 24" xmlns="http://www.w3.org/2000/svg"><rect fill="gray" height="20" ry="1" transform="rotate(90)" width="16" x="4" y="-22"/><path d="M21 5v14H3V5z" fill="#fff"/><path d="M8.852 6.513c.198.2.197.523-.002.722l-3.615 3.614a.511.511 0 01-.871-.315L4.002 6.56a.511.511 0 01.557-.557l3.976.362c.12.01.232.064.317.15zm6.296 0a.511.511 0 00.002.722l3.615 3.614a.511.511 0 00.871-.315l.362-3.975a.511.511 0 00-.557-.557l-3.976.362a.511.511 0 00-.317.15zM8.852 17.487a.511.511 0 00-.002-.722l-3.615-3.614a.511.511 0 00-.871.315l-.362 3.975a.511.511 0 00.557.557l3.976-.362a.511.511 0 00.317-.15zm6.296 0a.511.511 0 01.002-.722l3.615-3.614a.511.511 0 01.871.315l.362 3.975a.511.511 0 01-.557.557l-3.976-.362a.511.511 0 01-.317-.15z" fill="#4d82b8" fill-rule="evenodd"/>
<!-- (C) Collabora Productivity 2020, All Rights Reserved -->
</svg>