<?xml version="1.0" encoding="UTF-8" standalone="no"?>
<svg
   xmlns:dc="http://purl.org/dc/elements/1.1/"
   xmlns:cc="http://creativecommons.org/ns#"
   xmlns:rdf="http://www.w3.org/1999/02/22-rdf-syntax-ns#"
   xmlns:svg="http://www.w3.org/2000/svg"
   xmlns="http://www.w3.org/2000/svg"
   id="svg8"
   version="1.1"
   viewBox="0 0 24 24">
  <metadata
     id="metadata14">
    <rdf:RDF>
      <cc:Work
         rdf:about="">
        <dc:format>image/svg+xml</dc:format>
        <dc:type
           rdf:resource="http://purl.org/dc/dcmitype/StillImage" />
        <dc:title></dc:title>
      </cc:Work>
    </rdf:RDF>
  </metadata>
  <defs
     id="defs12" />
  <path
     id="path2"
     d="M 3 2 C 2.446 2 2 2.446 2 3 L 2 12.683594 L 2 19 C 2 19.554 2.446 20 3 20 L 11.474609 20 L 12.525391 20 L 13 20 C 12.273266 20 11.633551 19.592057 11.283203 19 L 10.486328 19 L 3 19 L 3 12.023438 L 3 3 L 21 3 L 21 12.023438 L 21 16 L 22 16 L 22 12.683594 L 22 3 C 22 2.446 21.554 2 21 2 L 3 2 z "
     style="display:inline;fill:#808080" />
  <path
     id="path4"
     d="M 3 3 L 3 12.023438 L 3 19 L 10.486328 19 L 11.283203 19 C 11.107739 18.703481 11 18.363969 11 18 C 11 16.909297 11.909297 16 13 16 L 16 16 L 16 13 C 16 11.909297 16.909297 11 18 11 C 19.090703 11 20 11.909297 20 13 L 20 16 L 21 16 L 21 12.023438 L 21 3 L 3 3 z "
     style="display:inline;fill:#ffffff" />
  <path
     id="path8"
     d="m 18,12.000005 c -0.554,0 -1,0.446 -1,1 v 4 h -4 c -0.554,0 -1,0.446 -1,1 0,0.554 0.446,1 1,1 h 4 v 4 c 0,0.554 0.446,1 1,1 0.554,0 1,-0.446 1,-1 v -4 h 4 c 0.554,0 1,-0.446 1,-1 0,-0.554 -0.446,-1 -1,-1 h -4 v -4 c 0,-0.554 -0.446,-1 -1,-1 z"
     style="display:inline;fill:#4d82b8" />
  <!-- (C) Collabora Productivity 2020, All Rights Reserved -->
</svg>
