<svg width="24" height="24" xmlns="http://www.w3.org/2000/svg"><path d="M6.75 7.781c-.957 0-1.768.335-2.451 1.018a3.327 3.327 0 00-1.018 2.451v1.5c0 .957.335 1.768 1.018 2.451a3.327 3.327 0 002.451 1.018h.473a.546.546 0 00.46-.256.543.543 0 00.036-.49c-.004-.01-.003-.022-.008-.032a.082.082 0 000-.005 4.74 4.74 0 01-.229-.536.551.551 0 00-.515-.369H6.75c-.488 0-.95-.18-1.275-.506s-.506-.787-.506-1.275v-1.5c0-.488.18-.95.506-1.275a1.797 1.797 0 011.275-.506H12c.488 0 .95.18 1.275.506.327.326.506.787.506 1.275v.676c0 .291.252.543.543.543h.602a.554.554 0 00.543-.543v-.676c0-.491-.088-.948-.256-1.375a.082.082 0 00-.002-.004l-.002-.004a.082.082 0 00-.002-.004.082.082 0 00-.004-.008.082.082 0 000-.003c-.016-.037-.035-.06-.047-.079.002.003-.002-.013-.023-.04a.082.082 0 00-.004-.005l-.006-.005a3.335 3.335 0 00-1.191-1.354A3.44 3.44 0 0012 7.781zm.96 7.66l.009.03a.082.082 0 00-.008-.03zm9.067-7.66a.546.546 0 00-.486.785c.092.19.172.372.227.534a.55.55 0 00.515.369h.217c.488 0 .95.18 1.275.506.327.326.506.787.506 1.275v1.5c0 .488-.18.95-.506 1.275a1.797 1.797 0 01-1.275.506H12c-.488 0-.95-.18-1.275-.506s-.506-.787-.506-1.275v-.676a.554.554 0 00-.543-.543h-.602a.554.554 0 00-.543.543v.676c0 .424.105.879.305 1.371l.006.016a.082.082 0 000 .002c.008.016.012.02.008.011.321.695.72 1.224 1.246 1.57.527.347 1.162.499 1.904.499h5.25c.957 0 1.768-.335 2.451-1.018s1.018-1.495 1.018-2.451v-1.5c0-.957-.335-1.769-1.018-2.451a3.327 3.327 0 00-2.451-1.018z" color="#000" fill="#4d4d4d" fill-rule="evenodd" style="font-feature-settings:normal;font-variant-alternates:normal;font-variant-caps:normal;font-variant-ligatures:normal;font-variant-numeric:normal;font-variant-position:normal;isolation:auto;mix-blend-mode:normal;shape-padding:0;text-decoration-color:#000;text-decoration-line:none;text-decoration-style:solid;text-indent:0;text-orientation:mixed;text-transform:none;white-space:normal"/>
<!-- (C) Collabora Productivity 2020, All Rights Reserved -->
</svg>