<?xml version="1.0" encoding="UTF-8" standalone="no"?>
<svg
   xmlns:dc="http://purl.org/dc/elements/1.1/"
   xmlns:cc="http://creativecommons.org/ns#"
   xmlns:rdf="http://www.w3.org/1999/02/22-rdf-syntax-ns#"
   xmlns:svg="http://www.w3.org/2000/svg"
   xmlns="http://www.w3.org/2000/svg"
   width="24"
   height="24"
   viewBox="0 0 24 24.000001"
   version="1.1"
   id="svg1491">
  <defs
     id="defs1485" />
  <metadata
     id="metadata1488">
    <rdf:RDF>
      <cc:Work
         rdf:about="">
        <dc:format>image/svg+xml</dc:format>
        <dc:type
           rdf:resource="http://purl.org/dc/dcmitype/StillImage" />
        <dc:title></dc:title>
      </cc:Work>
    </rdf:RDF>
  </metadata>
  <g
     id="layer1">
    <path
       id="path866"
       d="M 6,5 V 6.0332031 19 H 7.1777344 9.5566406 C 9.4372015,18.777475 9.3554093,18.522562 9.3613281,18.263672 c 0.00586,-0.256311 0.0824,-0.472698 0.1816407,-0.669922 H 7.1777344 V 7.2519531 6.40625 h 6.8749996 v 2.7929688 h 2.769532 v 5.2890622 c 0.438777,-0.03372 0.82569,-0.0271 1.177734,0.02539 V 8.4277344 L 14.599609,5 Z m 7.910156,12.59375 C 13.565704,18.143894 13.219832,18.619191 12.816406,19 H 15 h 2 1 v -1.146484 c -0.01172,1.34e-4 -0.02344,0.0039 -0.03516,0.0039 -0.434706,8.69e-4 -0.884584,-0.09329 -1.332032,-0.263672 h -2.177734 z"
       style="color:#000000;font-style:normal;font-variant:normal;font-weight:normal;font-stretch:normal;font-size:medium;line-height:normal;font-family:sans-serif;font-variant-ligatures:normal;font-variant-position:normal;font-variant-caps:normal;font-variant-numeric:normal;font-variant-alternates:normal;font-feature-settings:normal;text-indent:0;text-align:start;text-decoration:none;text-decoration-line:none;text-decoration-style:solid;text-decoration-color:#000000;letter-spacing:normal;word-spacing:normal;text-transform:none;writing-mode:lr-tb;direction:ltr;text-orientation:mixed;dominant-baseline:auto;baseline-shift:baseline;text-anchor:start;white-space:normal;shape-padding:0;clip-rule:nonzero;display:inline;overflow:visible;visibility:visible;opacity:1;isolation:auto;mix-blend-mode:normal;color-interpolation:sRGB;color-interpolation-filters:linearRGB;solid-color:#000000;solid-opacity:1;vector-effect:none;fill:#4c566a;fill-opacity:1;fill-rule:nonzero;stroke:none;stroke-width:1.01649714;stroke-linecap:butt;stroke-linejoin:miter;stroke-miterlimit:4;stroke-dasharray:none;stroke-dashoffset:0;stroke-opacity:1;paint-order:markers stroke fill;color-rendering:auto;image-rendering:auto;shape-rendering:auto;text-rendering:auto;enable-background:accumulate" />
    <path
       id="path2697"
       d="m 14.210938,10.521484 c -0.260078,-0.01967 -0.522678,0.11645 -0.638672,0.396485 -0.08947,0.215986 -0.09868,0.557849 -0.06641,0.943359 0.03227,0.385511 0.113144,0.808693 0.234375,1.152344 l 0.177735,0.505859 -0.263672,0.695313 c -0.150875,0.398242 -0.426154,1.058104 -0.609375,1.458984 l -0.320313,0.703125 -0.830078,0.412109 c -0.691722,0.343762 -1.171162,0.676082 -1.427734,1.001954 -0.128286,0.162936 -0.201303,0.329049 -0.205078,0.49414 -0.0038,0.165092 0.06616,0.322022 0.197265,0.453125 0.142554,0.142555 0.349144,0.20186 0.572266,0.19336 0.223122,-0.0085 0.466789,-0.08415 0.703125,-0.222657 0.434004,-0.254345 0.991319,-0.903295 1.476563,-1.689453 0.119535,-0.193663 0.286807,-0.435962 0.30664,-0.464843 0.527066,-0.177898 0.729585,-0.247396 1.101563,-0.347657 0.350567,-0.09449 1.023677,-0.232597 1.080078,-0.24414 0.03225,0.03207 0.174214,0.177406 0.427734,0.355468 0.621106,0.436241 1.298651,0.6417 1.835938,0.640625 0.268643,-5.37e-4 0.503029,-0.052 0.679687,-0.162109 0.176659,-0.110113 0.291016,-0.291116 0.291016,-0.507813 0,-0.327624 -0.194224,-0.622596 -0.607422,-0.777343 -0.413198,-0.154747 -1.042698,-0.193103 -1.96875,-0.07227 L 15.835935,15.507809 15.4082,14.974606 C 15.163514,14.667198 14.880973,14.27439 14.792969,14.125 l -0.154297,-0.259766 0.1875,-0.722656 c 0.244818,-0.941334 0.277762,-1.693516 0.05078,-2.146484 -0.145197,-0.289763 -0.40594,-0.454942 -0.666015,-0.47461 z m -0.05274,0.445313 c 0.04092,0.0045 0.0954,0.03463 0.154297,0.0957 0.03445,0.0576 0.05866,0.161735 0.0625,0.294922 0.0039,0.136742 -0.0098,0.298986 -0.0293,0.46289 -0.05236,0.329391 -0.145968,0.770809 -0.203125,0.964844 l -0.01758,0.05664 -0.05664,-0.181641 c -0.08096,-0.256845 -0.14819,-0.701751 -0.167968,-0.953125 -0.02899,-0.368553 0.05224,-0.601826 0.136718,-0.689453 0.04224,-0.04381 0.07798,-0.05554 0.121094,-0.05078 z m 0.279297,3.369141 c 0.05097,0.08478 0.07599,0.137734 0.222656,0.330078 0.171347,0.258268 0.430827,0.594357 0.59375,0.765625 l 0.138672,0.171875 c -0.160338,0.03192 -0.581308,0.114696 -0.875,0.191406 -0.250008,0.0653 -0.539548,0.161569 -0.728516,0.222656 l 0.01172,-0.02344 0.410157,-1.015625 c 0.104514,-0.246575 0.177821,-0.489958 0.226562,-0.642578 z m 2.556641,1.445312 c 0.291648,-0.0043 0.481511,-1.73e-4 0.61914,0.01758 0.137629,0.01775 0.222468,0.04838 0.328125,0.101563 0.116868,0.05883 0.175589,0.155119 0.185547,0.251953 0.01,0.09683 -0.02642,0.193255 -0.126953,0.263672 -0.113053,0.0809 -0.259189,0.09702 -0.576172,0 -0.32332,-0.09897 -0.785196,-0.301133 -0.958984,-0.400391 -0.06649,-0.03805 -0.133926,-0.08639 -0.232422,-0.152344 0.06293,-0.0085 0.08005,-0.01244 0.15625,-0.02148 0.19907,-0.02362 0.428997,-0.04836 0.605469,-0.06055 z m -4.710938,1.273438 c -0.170992,0.262706 -0.366976,0.533489 -0.556641,0.757812 -0.208259,0.246317 -0.409908,0.441268 -0.517578,0.507812 -0.163045,0.100769 -0.279451,0.148276 -0.351562,0.154297 -0.07211,0.006 -0.10559,-0.01198 -0.16211,-0.08008 -0.04351,-0.05242 -0.05266,-0.09609 -0.0332,-0.167969 0.01946,-0.07188 0.07713,-0.167207 0.179688,-0.273437 0.20511,-0.212461 0.580377,-0.46648 1.097656,-0.726563 z"
       style="color:#000000;font-style:normal;font-variant:normal;font-weight:normal;font-stretch:normal;font-size:medium;line-height:normal;font-family:sans-serif;font-variant-ligatures:normal;font-variant-position:normal;font-variant-caps:normal;font-variant-numeric:normal;font-variant-alternates:normal;font-feature-settings:normal;text-indent:0;text-align:start;text-decoration:none;text-decoration-line:none;text-decoration-style:solid;text-decoration-color:#000000;letter-spacing:normal;word-spacing:normal;text-transform:none;writing-mode:lr-tb;direction:ltr;text-orientation:mixed;dominant-baseline:auto;baseline-shift:baseline;text-anchor:start;white-space:normal;shape-padding:0;clip-rule:nonzero;display:inline;overflow:visible;visibility:visible;opacity:1;isolation:auto;mix-blend-mode:normal;color-interpolation:sRGB;color-interpolation-filters:linearRGB;solid-color:#000000;solid-opacity:1;vector-effect:none;fill:#ff2116;fill-opacity:1;fill-rule:nonzero;stroke:none;stroke-width:0.2;stroke-linecap:butt;stroke-linejoin:miter;stroke-miterlimit:4;stroke-dasharray:none;stroke-dashoffset:0;stroke-opacity:1;color-rendering:auto;image-rendering:auto;shape-rendering:auto;text-rendering:auto;enable-background:accumulate" />
  </g>

<!-- (C) Collabora Productivity 2020, All Rights Reserved -->
</svg>
