<?xml version="1.0" encoding="UTF-8" standalone="no"?>
<svg
   xmlns:dc="http://purl.org/dc/elements/1.1/"
   xmlns:cc="http://creativecommons.org/ns#"
   xmlns:rdf="http://www.w3.org/1999/02/22-rdf-syntax-ns#"
   xmlns:svg="http://www.w3.org/2000/svg"
   xmlns="http://www.w3.org/2000/svg"
   id="svg12"
   version="1.1"
   viewBox="0 0 24 24">
  <metadata
     id="metadata18">
    <rdf:RDF>
      <cc:Work
         rdf:about="">
        <dc:format>image/svg+xml</dc:format>
        <dc:type
           rdf:resource="http://purl.org/dc/dcmitype/StillImage" />
        <dc:title></dc:title>
      </cc:Work>
    </rdf:RDF>
  </metadata>
  <defs
     id="defs16" />
  <g
     style="stroke-width:1.0833329"
     transform="matrix(0.92307726,0,0,0.92307726,33.872237,18.944591)"
     id="g844">
    <path
       id="path963"
       d="m -26.69491,1.6016949 h 2 v 2 h -2 z"
       style="fill:#8c86bc;fill-opacity:1;stroke-width:1.0833329" />
    <path
       id="path965"
       d="m -19.70556,-15.398305 c -0.70101,0 -1.35577,0.162208 -1.96378,0.487847 -0.60801,0.317697 -1.13671,0.806057 -1.58736,1.465278 -0.44349,0.659221 -0.79363,1.493049 -1.05114,2.501736 -0.25751,1.0007449 -0.38707,2.1842519 -0.38707,3.5503469 0,1.366096 0.12956,2.553813 0.38707,3.5625 0.25751,1.000745 0.60765,1.830363 1.05114,2.489584 0.45065,0.65127802 0.97935,1.14137502 1.58736,1.46701402 0.60801,0.317696 1.26277,0.475694 1.96378,0.475694 0.701,0 1.35576,-0.157998 1.96378,-0.475694 0.61516,-0.325639 1.14736,-0.815736 1.59801,-1.46701402 0.45064,-0.659221 0.80427,-1.488839 1.06179,-2.489584 0.25751,-1.008687 0.38707,-2.196404 0.38707,-3.5625 0,-1.366095 -0.12956,-2.549602 -0.38707,-3.5503469 -0.25752,-1.008687 -0.61115,-1.842515 -1.06179,-2.501736 -0.45065,-0.659221 -0.98285,-1.147581 -1.59801,-1.465278 -0.60802,-0.325639 -1.26278,-0.487847 -1.96378,-0.487847 z m 0,1.680556 c 0.41487,0 0.81229,0.106735 1.1914,0.32118 0.37912,0.214445 0.71175,0.568334 0.99787,1.060764 0.29328,0.49243 0.52613,1.142998 0.6978,1.953125 0.17167,0.8021839 0.25746,1.7982209 0.25746,2.9895829 0,1.191364 -0.0858,2.193347 -0.25746,3.003473 -0.17167,0.802184 -0.40452,1.448542 -0.6978,1.940971 -0.28612,0.492431 -0.61875,0.846319 -0.99787,1.060765 -0.37911,0.206502 -0.77653,0.309027 -1.1914,0.309027 -0.41488,0 -0.8123,-0.102525 -1.19141,-0.309027 -0.37196,-0.214446 -0.70459,-0.568334 -0.99787,-1.060765 -0.28612,-0.492429 -0.51547,-1.138787 -0.68714,-1.940971 -0.17168,-0.810126 -0.25746,-1.812109 -0.25746,-3.003473 0,-1.191362 0.0858,-2.187399 0.25746,-2.9895829 0.17167,-0.810127 0.40102,-1.460695 0.68714,-1.953125 0.29328,-0.49243 0.62591,-0.846319 0.99787,-1.060764 0.37911,-0.214445 0.77653,-0.32118 1.19141,-0.32118 z"
       style="opacity:1;fill:#4c586c;fill-opacity:0.25098039;stroke:none;stroke-width:1.0833329" />
    <path
       id="path967"
       d="m -31.70556,-15.398305 c -0.70101,0 -1.35577,0.162208 -1.96378,0.487847 -0.60801,0.317697 -1.13671,0.806057 -1.58736,1.465278 -0.44349,0.659221 -0.79363,1.493049 -1.05114,2.501736 -0.25751,1.0007449 -0.38707,2.1842519 -0.38707,3.5503469 0,1.366096 0.12956,2.553813 0.38707,3.5625 0.25751,1.000745 0.60765,1.830363 1.05114,2.489584 0.45065,0.65127802 0.97935,1.14137502 1.58736,1.46701402 0.60801,0.317696 1.26277,0.475694 1.96378,0.475694 0.701,0 1.35576,-0.157998 1.96378,-0.475694 0.61516,-0.325639 1.14736,-0.815736 1.59801,-1.46701402 0.45064,-0.659221 0.80427,-1.488839 1.06179,-2.489584 0.25751,-1.008687 0.38707,-2.196404 0.38707,-3.5625 0,-1.366095 -0.12956,-2.549602 -0.38707,-3.5503469 -0.25752,-1.008687 -0.61115,-1.842515 -1.06179,-2.501736 -0.45065,-0.659221 -0.98285,-1.147581 -1.59801,-1.465278 -0.60802,-0.325639 -1.26278,-0.487847 -1.96378,-0.487847 z m 0,1.680556 c 0.41487,0 0.81229,0.106735 1.1914,0.32118 0.37912,0.214445 0.71175,0.568334 0.99787,1.060764 0.29328,0.49243 0.52613,1.142998 0.6978,1.953125 0.17167,0.8021839 0.25746,1.7982209 0.25746,2.9895829 0,1.191364 -0.0858,2.193347 -0.25746,3.003473 -0.17167,0.802184 -0.40452,1.448542 -0.6978,1.940971 -0.28612,0.492431 -0.61875,0.846319 -0.99787,1.060765 -0.37911,0.206502 -0.77653,0.309027 -1.1914,0.309027 -0.41488,0 -0.8123,-0.102525 -1.19141,-0.309027 -0.37196,-0.214446 -0.70459,-0.568334 -0.99787,-1.060765 -0.28612,-0.492429 -0.51547,-1.138787 -0.68714,-1.940971 -0.17168,-0.810126 -0.25746,-1.812109 -0.25746,-3.003473 0,-1.191362 0.0858,-2.187399 0.25746,-2.9895829 0.17167,-0.810127 0.40102,-1.460695 0.68714,-1.953125 0.29328,-0.49243 0.62591,-0.846319 0.99787,-1.060764 0.37911,-0.214445 0.77653,-0.32118 1.19141,-0.32118 z"
       style="fill:#8c86bc;fill-opacity:1;stroke-width:1.0833329" />
    <rect
       style="opacity:1;fill:#4c566a;fill-opacity:1;stroke:none;stroke-width:1.49499941;stroke-linecap:round;stroke-linejoin:miter;stroke-miterlimit:4;stroke-dasharray:none;stroke-dashoffset:0.99999994;stroke-opacity:1;paint-order:markers stroke fill"
       id="rect969"
       width="10"
       height="2"
       x="-20.69492"
       y="-8.3983068" />
  </g>

<!-- (C) Collabora Productivity 2020, All Rights Reserved -->
</svg>
