<?xml version="1.0" encoding="UTF-8" standalone="no"?>
<svg
   xmlns:dc="http://purl.org/dc/elements/1.1/"
   xmlns:cc="http://creativecommons.org/ns#"
   xmlns:rdf="http://www.w3.org/1999/02/22-rdf-syntax-ns#"
   xmlns:svg="http://www.w3.org/2000/svg"
   xmlns="http://www.w3.org/2000/svg"
   xmlns:sodipodi="http://sodipodi.sourceforge.net/DTD/sodipodi-0.dtd"
   xmlns:inkscape="http://www.inkscape.org/namespaces/inkscape"
   viewBox="0 0 24 24"
   version="1.1"
   id="svg4"
   sodipodi:docname="lc_numberformatpercent_branding.svg"
   inkscape:version="0.92.4 (unknown)">
  <metadata
     id="metadata10">
    <rdf:RDF>
      <cc:Work
         rdf:about="">
        <dc:format>image/svg+xml</dc:format>
        <dc:type
           rdf:resource="http://purl.org/dc/dcmitype/StillImage" />
      </cc:Work>
    </rdf:RDF>
  </metadata>
  <defs
     id="defs8" />
  <sodipodi:namedview
     pagecolor="#ffffff"
     bordercolor="#666666"
     borderopacity="1"
     objecttolerance="10"
     gridtolerance="10"
     guidetolerance="10"
     inkscape:pageopacity="0"
     inkscape:pageshadow="2"
     inkscape:window-width="1920"
     inkscape:window-height="1017"
     id="namedview6"
     showgrid="false"
     inkscape:zoom="2.8284271"
     inkscape:cx="-13.185021"
     inkscape:cy="-13.660877"
     inkscape:window-x="0"
     inkscape:window-y="30"
     inkscape:window-maximized="1"
     inkscape:current-layer="svg4" />
  <path
     d="m7.5 3a3.5 4 0 0 0 -3.5 4 3.5 4 0 0 0 3.5 4 3.5 4 0 0 0 3.5-4 3.5 4 0 0 0 -3.5-4zm10.103516 0c-.384264 0-.713074.089228-.986328.2675781-.264715.1702431-.503317.4179148-.716797.7421875l-10.900391 15.9902344h1.3828125c.3415674 0 .6403087-.060038.8964844-.181641.2647149-.121603.5084498-.352873.7304687-.693359l10.9902344-16.125zm-10.103516 2a1.5 2 0 0 1 1.5 2 1.5 2 0 0 1 -1.5 2 1.5 2 0 0 1 -1.5-2 1.5 2 0 0 1 1.5-2zm9 8a3.5 4 0 0 0 -3.5 4 3.5 4 0 0 0 3.5 4 3.5 4 0 0 0 3.5-4 3.5 4 0 0 0 -3.5-4zm0 2a1.5 2 0 0 1 1.5 2 1.5 2 0 0 1 -1.5 2 1.5 2 0 0 1 -1.5-2 1.5 2 0 0 1 1.5-2z"
     id="path2"
     style="fill:#b7b84d;fill-opacity:1"
     fill="#696969" />

<!-- (C) Collabora Productivity 2020, All Rights Reserved -->
</svg>
