<?xml version="1.0" encoding="UTF-8" standalone="no"?>
<svg
   xmlns:dc="http://purl.org/dc/elements/1.1/"
   xmlns:cc="http://creativecommons.org/ns#"
   xmlns:rdf="http://www.w3.org/1999/02/22-rdf-syntax-ns#"
   xmlns:svg="http://www.w3.org/2000/svg"
   xmlns="http://www.w3.org/2000/svg"
   id="svg12"
   version="1.1"
   viewBox="0 0 24 24">
  <metadata
     id="metadata18">
    <rdf:RDF>
      <cc:Work
         rdf:about="">
        <dc:format>image/svg+xml</dc:format>
        <dc:type
           rdf:resource="http://purl.org/dc/dcmitype/StillImage" />
        <dc:title></dc:title>
      </cc:Work>
    </rdf:RDF>
  </metadata>
  <defs
     id="defs16" />
  <path
     style="fill:#8c86bc;fill-opacity:1;stroke-width:1"
     id="path971"
     d="m 9.2307676,20.422846 h 1.8461534 v 1.846153 H 9.2307676 Z" />
  <path
     id="path973"
     d="m 15.682475,4.7305398 c -0.647087,0 -1.25148,0.1497304 -1.81272,0.4503202 -0.56124,0.2932588 -1.049271,0.7440526 -1.465255,1.3525642 -0.409376,0.6085116 -0.732582,1.3781989 -0.970283,2.3092945 -0.237702,0.9237645 -0.357296,2.0162323 -0.357296,3.2772433 0,1.261011 0.119594,2.357365 0.357296,3.288461 0.237701,0.923764 0.560907,1.689566 0.970283,2.298077 0.415984,0.60118 0.904015,1.053577 1.465255,1.354167 0.56124,0.293258 1.165633,0.439102 1.81272,0.439102 0.647076,0 1.25147,-0.145844 1.812719,-0.439102 0.56784,-0.30059 1.059102,-0.752987 1.475086,-1.354167 0.415976,-0.608511 0.742413,-1.374313 0.980114,-2.298077 0.237702,-0.931096 0.357295,-2.02745 0.357295,-3.288461 0,-1.261011 -0.119593,-2.3534788 -0.357295,-3.2772433 C 19.712693,7.9116231 19.386256,7.1419358 18.97028,6.5334242 18.554296,5.9249126 18.063034,5.4741188 17.495194,5.18086 16.933945,4.8802702 16.329551,4.7305398 15.682475,4.7305398 Z m 0,1.5512823 c 0.382966,0 0.749806,0.098525 1.099753,0.2964738 0.349957,0.1979492 0.657,0.5246159 0.921111,0.9791666 0.27072,0.4545507 0.485658,1.055075 0.644123,1.8028844 0.158465,0.7404771 0.237655,1.6598961 0.237655,2.7596151 0,1.09972 -0.0792,2.024627 -0.237655,2.772436 -0.158465,0.740477 -0.373403,1.337116 -0.644123,1.791665 -0.264111,0.454552 -0.571154,0.781218 -0.921111,0.979168 -0.349947,0.190617 -0.716787,0.285256 -1.099753,0.285256 -0.382967,0 -0.749816,-0.09464 -1.099763,-0.285256 -0.343348,-0.19795 -0.650391,-0.524616 -0.921111,-0.979168 -0.264111,-0.454549 -0.475819,-1.051188 -0.634283,-1.791665 -0.158474,-0.747809 -0.237655,-1.672716 -0.237655,-2.772436 0,-1.099719 0.0792,-2.019138 0.237655,-2.7596151 0.158464,-0.7478094 0.370172,-1.3483337 0.634283,-1.8028844 0.27072,-0.4545507 0.577763,-0.7812174 0.921111,-0.9791666 0.349947,-0.1979492 0.716796,-0.2964738 1.099763,-0.2964738 z"
     style="opacity:1;fill:#4c586c;fill-opacity:0.25098039;stroke-width:1" />
  <path
     style="fill:#8c86bc;fill-opacity:1;stroke-width:1"
     id="path975"
     d="m 4.6055527,4.7305398 c -0.6470861,0 -1.2514799,0.1497304 -1.8127198,0.4503202 C 2.2315929,5.4741188 1.7435622,5.9249126 1.3275777,6.5334242 0.91820233,7.1419358 0.59499621,7.9116231 0.3572947,8.8427187 0.11959318,9.7664832 -6.4894374e-7,10.858951 -6.4894374e-7,12.119962 c 0,1.261011 0.11959382894374,2.357365 0.35729534894374,3.288461 0.23770151,0.923764 0.56090763,1.689566 0.970283,2.298077 0.4159845,0.60118 0.9040152,1.053577 1.4652552,1.354167 0.5612399,0.293258 1.1656337,0.439102 1.8127198,0.439102 0.6470768,0 1.2514706,-0.145844 1.8127198,-0.439102 0.5678399,-0.30059 1.0591014,-0.752987 1.475086,-1.354167 0.4159753,-0.608511 0.7424122,-1.374313 0.9801137,-2.298077 0.2377015,-0.931096 0.3572954,-2.02745 0.3572954,-3.288461 0,-1.261011 -0.1195939,-2.3534788 -0.3572954,-3.2772433 C 8.6357707,7.9116231 8.3093338,7.1419358 7.8933585,6.5334242 7.4773739,5.9249126 6.9861124,5.4741188 6.4182725,5.18086 5.8570233,4.8802702 5.2526295,4.7305398 4.6055527,4.7305398 Z m 0,1.5512823 c 0.3829661,0 0.7498061,0.098525 1.0997537,0.2964738 0.3499569,0.1979492 0.6569999,0.5246159 0.9211107,0.9791666 0.2707199,0.4545507 0.4856584,1.055075 0.644123,1.8028844 0.1584646,0.7404771 0.2376553,1.6598961 0.2376553,2.7596151 0,1.09972 -0.0792,2.024627 -0.2376553,2.772436 -0.1584646,0.740477 -0.3734031,1.337116 -0.644123,1.791665 -0.2641108,0.454552 -0.5711538,0.781218 -0.9211107,0.979168 -0.3499476,0.190617 -0.7167876,0.285256 -1.0997537,0.285256 -0.3829661,0 -0.7498153,-0.09464 -1.099763,-0.285256 C 3.1624421,17.465281 2.855399,17.138615 2.5846791,16.684063 2.3205683,16.229514 2.1088607,15.632875 1.9503961,14.892398 1.7919222,14.144589 1.7127407,13.219682 1.7127407,12.119962 c 0,-1.099719 0.0792,-2.019138 0.2376554,-2.7596151 C 2.1088607,8.6125375 2.3205683,8.0120132 2.5846791,7.5574625 2.855399,7.1029118 3.1624421,6.7762451 3.5057897,6.5782959 3.8557374,6.3803467 4.2225866,6.2818221 4.6055527,6.2818221 Z" />
  <rect
     style="opacity:1;fill:#4c566a;fill-opacity:1;stroke:none;stroke-width:1.38;stroke-linecap:round;stroke-linejoin:miter;stroke-miterlimit:4;stroke-dasharray:none;stroke-dashoffset:0.99999994;stroke-opacity:1;paint-order:markers stroke fill"
     id="rect977"
     width="9.2307682"
     height="1.8461536"
     x="14.769231"
     y="11.192075" />
  <rect
     y="-20.307692"
     x="7.4997678"
     height="1.8461536"
     width="9.2307682"
     id="rect979"
     style="opacity:1;fill:#4c566a;fill-opacity:1;stroke:none;stroke-width:1.38;stroke-linecap:round;stroke-linejoin:miter;stroke-miterlimit:4;stroke-dasharray:none;stroke-dashoffset:0.99999994;stroke-opacity:1;paint-order:markers stroke fill"
     transform="rotate(90)" />

<!-- (C) Collabora Productivity 2020, All Rights Reserved -->
</svg>
