<svg width="24" height="24" xmlns="http://www.w3.org/2000/svg"><path fill="#4c566a" stroke="#4c566a" stroke-linecap="round" stroke-linejoin="round" stroke-width="1.2" d="M6.634 8.708V2.223h10.732v6.485"/><path d="M3.738 7.614c-1.183 0-2.17.95-2.177 2.129v8.939a.6.6 0 00.6.6h19.678a.6.6 0 00.6-.6V9.743c-.008-1.179-.994-2.13-2.178-2.13H3.738zm1.49 3.482a.6.6 0 01.061 0h2.953a.6.6 0 110 1.2H5.29a.6.6 0 01-.06-1.2z" color="#000" fill="none" stroke="#fff" style="font-feature-settings:normal;font-variant-alternates:normal;font-variant-caps:normal;font-variant-ligatures:normal;font-variant-numeric:normal;font-variant-position:normal;isolation:auto;mix-blend-mode:normal;shape-padding:0;text-decoration-color:#000;text-decoration-line:none;text-decoration-style:solid;text-indent:0;text-orientation:mixed;text-transform:none;white-space:normal"/><path d="M3.738 8.117c-1.183 0-2.17.95-2.177 2.13v8.939a.6.6 0 00.6.6h19.678a.6.6 0 00.6-.6v-8.94c-.008-1.179-.994-2.129-2.178-2.129H3.738zm1.49 3.483a.6.6 0 01.061 0h2.953a.6.6 0 110 1.199H5.29a.6.6 0 01-.06-1.2z" color="#000" fill="#4c566a" style="font-feature-settings:normal;font-variant-alternates:normal;font-variant-caps:normal;font-variant-ligatures:normal;font-variant-numeric:normal;font-variant-position:normal;isolation:auto;mix-blend-mode:normal;shape-padding:0;text-decoration-color:#000;text-decoration-line:none;text-decoration-style:solid;text-indent:0;text-orientation:mixed;text-transform:none;white-space:normal"/><path fill="#fff" stroke="#4c566a" stroke-linecap="round" stroke-linejoin="round" stroke-width="1.2" d="M6.634 16.13h10.733v5.646H6.634z"/>
<!-- (C) Collabora Productivity 2020, All Rights Reserved -->
</svg>