<?xml version="1.0" encoding="UTF-8" standalone="no"?>
<svg
   xmlns:dc="http://purl.org/dc/elements/1.1/"
   xmlns:cc="http://creativecommons.org/ns#"
   xmlns:rdf="http://www.w3.org/1999/02/22-rdf-syntax-ns#"
   xmlns:svg="http://www.w3.org/2000/svg"
   xmlns="http://www.w3.org/2000/svg"
   id="svg12"
   version="1.1"
   viewBox="0 0 24 24">
  <metadata
     id="metadata18">
    <rdf:RDF>
      <cc:Work
         rdf:about="">
        <dc:format>image/svg+xml</dc:format>
        <dc:type
           rdf:resource="http://purl.org/dc/dcmitype/StillImage" />
        <dc:title></dc:title>
      </cc:Work>
    </rdf:RDF>
  </metadata>
  <defs
     id="defs16" />
  <path
     id="path2"
     d="M 10.884766 2 L 2 20 L 4.640625 20 C 4.9163167 20 5.1615613 19.92315 5.375 19.769531 C 5.5884387 19.606881 5.7439708 19.425358 5.8417969 19.226562 L 7.5234375 15.609375 L 13.794922 15.609375 L 16.96875 12.435547 L 14.339844 2 L 10.884766 2 z M 12.244141 5.1308594 C 12.306391 5.5736305 12.369388 5.9857163 12.431641 6.3652344 C 12.502791 6.7357163 12.570561 7.0597233 12.632812 7.3398438 L 13.925781 13.208984 L 8.6308594 13.208984 L 11.351562 7.3671875 C 11.476069 7.0780309 11.614439 6.7447524 11.765625 6.3652344 C 11.925704 5.9857163 12.084062 5.5736305 12.244141 5.1308594 z "
     style="fill:#4c566a;fill-opacity:1" />
  <path
     id="path4"
     d="M 1.5 21 C 1.223 21 1 21.223 1 21.5 C 1 21.777 1.223 22 1.5 22 L 11.138672 22 L 10.138672 21 L 1.5 21 z "
     style="fill:#4c566a;fill-opacity:1" />
  <g
     style="fill:#e68497"
     id="g10" />
  <rect
     ry="1"
     transform="matrix(0.70715694,-0.70705662,0.70715694,0.70705662,0,0)"
     height="5.2663527"
     width="8.4260502"
     y="21.784464"
     style="opacity:1;fill:#ffffff;fill-opacity:1;fill-rule:nonzero;stroke:#88c0d0;stroke-width:1;stroke-miterlimit:4;stroke-dasharray:none;stroke-opacity:1"
     x="-6.5560699"
     rx="1"
     id="rect2534" />
  <path
     id="rect869"
     d="m 15.220481,14.881808 4.43035,4.429701 3.757352,-3.71849 c 0.546533,-0.540881 0.543753,-1.432902 0,-1.976576 l -2.452006,-2.451659 c -0.543753,-0.543676 -1.434572,-0.545142 -1.978324,-0.0015 z"
     style="color:#000000;font-style:normal;font-variant:normal;font-weight:normal;font-stretch:normal;font-size:medium;line-height:normal;font-family:sans-serif;font-variant-ligatures:normal;font-variant-position:normal;font-variant-caps:normal;font-variant-numeric:normal;font-variant-alternates:normal;font-feature-settings:normal;text-indent:0;text-align:start;text-decoration:none;text-decoration-line:none;text-decoration-style:solid;text-decoration-color:#000000;letter-spacing:normal;word-spacing:normal;text-transform:none;writing-mode:lr-tb;direction:ltr;text-orientation:mixed;dominant-baseline:auto;baseline-shift:baseline;text-anchor:start;white-space:normal;shape-padding:0;clip-rule:nonzero;display:inline;overflow:visible;visibility:visible;opacity:1;isolation:auto;mix-blend-mode:normal;color-interpolation:sRGB;color-interpolation-filters:linearRGB;solid-color:#000000;solid-opacity:1;vector-effect:none;fill:#88c0d0;fill-opacity:1;fill-rule:nonzero;stroke:none;stroke-width:0.67335314;stroke-linecap:butt;stroke-linejoin:miter;stroke-miterlimit:4;stroke-dasharray:none;stroke-dashoffset:0;stroke-opacity:1;color-rendering:auto;image-rendering:auto;shape-rendering:auto;text-rendering:auto;enable-background:accumulate" />

<!-- (C) Collabora Productivity 2020, All Rights Reserved -->
</svg>
