<?xml version="1.0" encoding="UTF-8" standalone="no"?>
<svg
   xmlns:dc="http://purl.org/dc/elements/1.1/"
   xmlns:cc="http://creativecommons.org/ns#"
   xmlns:rdf="http://www.w3.org/1999/02/22-rdf-syntax-ns#"
   xmlns:svg="http://www.w3.org/2000/svg"
   xmlns="http://www.w3.org/2000/svg"
   id="svg10"
   version="1.1"
   viewBox="0 0 24 24">
  <metadata
     id="metadata16">
    <rdf:RDF>
      <cc:Work
         rdf:about="">
        <dc:format>image/svg+xml</dc:format>
        <dc:type
           rdf:resource="http://purl.org/dc/dcmitype/StillImage" />
        <dc:title></dc:title>
      </cc:Work>
    </rdf:RDF>
  </metadata>
  <defs
     id="defs14" />
  <g
     id="g954"
     style="display:inline;opacity:1;stroke-width:0.26458332">
    <path
       id="path2-0"
       d="M 3,3 H 21 V 21 H 3 Z"
       style="fill:#ffffff;stroke-width:0.26458332" />
    <path
       style="fill:#4c566a;fill-opacity:1;stroke-width:0.26458332"
       d="M 3,2 C 2.446,2 2,2.446 2,3 v 18 c 0,0.554 0.446,1 1,1 h 18 c 0.554,0 1,-0.446 1,-1 V 3 C 22,2.446 21.554,2 21,2 Z m 0,1 h 5 1 6 1 5 v 6 1 3 1 3 1 3 H 16 15 9 8 3 V 18 17 14 13 10 9 Z"
       id="path4-03" />
    <rect
       style="opacity:1;vector-effect:none;fill:#4c566a;fill-opacity:1;stroke:none;stroke-width:0.2;stroke-linecap:round;stroke-miterlimit:4;stroke-dasharray:none;stroke-opacity:1;paint-order:markers stroke fill"
       id="rect924"
       width="20"
       height="2"
       x="2.0000005"
       y="11" />
    <rect
       y="11.000001"
       x="-22"
       height="2"
       width="20"
       id="rect926"
       style="opacity:1;vector-effect:none;fill:#8c86bc;fill-opacity:1;stroke:none;stroke-width:0.2;stroke-linecap:round;stroke-miterlimit:4;stroke-dasharray:none;stroke-opacity:1;paint-order:markers stroke fill"
       transform="rotate(-90)" />
  </g>

<!-- (C) Collabora Productivity 2020, All Rights Reserved -->
</svg>
