<svg version="1.1" viewBox="0 0 24 24" xmlns="http://www.w3.org/2000/svg">
 <path d="m3 2c-0.554 0-1 0.446-1 1v18c0 0.554 0.446 1 1 1h14.139a3.9915 3.9915 0 0 1-0.13086-1 3.9915 3.9915 0 0 1 3.9922-3.9922 3.9915 3.9915 0 0 1 1 0.13281v-14.141c0-0.554-0.446-1-1-1h-18z" fill="#4c566a"/>
 <g fill="#fff">
  <rect x="4" y="3" width="16" height="8" ry="1"/>
  <path d="M8 15c-.554 0-1 .446-1 1v4c0 .554.446 1 1 1h2v-5h2v5h5c.554 0 1-.446 1-1v-4c0-.554-.446-1-1-1z"/>
 </g>
 <circle cx="21" cy="21" r="3" fill="#d65532"/>

<!-- (C) Collabora Productivity 2020, All Rights Reserved -->
</svg>
