<svg width="24" height="24" xmlns="http://www.w3.org/2000/svg"><path d="M10.237 4.665v1h10.592v10.346H11.86a.5.5 0 00-.369.162l-3.719 4.041v-3.703a.5.5 0 00-.5-.5H3.784V7.776h-1v8.735a.5.5 0 00.039.195.5.5 0 00.107.157v.002a.5.5 0 00.155.105l.004.002h.002a.5.5 0 00.193.04h3.488v4.484a.5.5 0 00.867.337l4.44-4.822h9.25a.5.5 0 00.5-.5V5.165a.5.5 0 00-.5-.5z" color="#000" fill="#4d4d4d" style="font-feature-settings:normal;font-variant-alternates:normal;font-variant-caps:normal;font-variant-ligatures:normal;font-variant-numeric:normal;font-variant-position:normal;isolation:auto;mix-blend-mode:normal;shape-padding:0;text-decoration-color:#000;text-decoration-line:none;text-decoration-style:solid;text-indent:0;text-orientation:mixed;text-transform:none;white-space:normal"/><path d="M4.839 2.005v2.668H2.17v1h2.668v2.666h1V5.673h2.664v-1H5.839V2.005z" color="#000" fill="#4d82b8" style="font-feature-settings:normal;font-variant-alternates:normal;font-variant-caps:normal;font-variant-ligatures:normal;font-variant-numeric:normal;font-variant-position:normal;isolation:auto;mix-blend-mode:normal;shape-padding:0;text-decoration-color:#000;text-decoration-line:none;text-decoration-style:solid;text-indent:0;text-orientation:mixed;text-transform:none;white-space:normal"/>
<!-- (C) Collabora Productivity 2020, All Rights Reserved -->
</svg>
