<svg width="24" height="24" xmlns="http://www.w3.org/2000/svg"><path d="M19.233 13.021c.582 0 1.053-.471 1.053-1.053 0-.388-.484-2.014-1.053-2.576-.702.953-1.053 2.188-1.053 2.576a1.053 1.053 0 001.053 1.053z" fill="#4d4d4d" fill-rule="evenodd"/><g fill="#4d4d4d"><path d="M12.805 1.783c-.323.04-.823.336-1.528 1.367L7.933 7.73l8.42 5.234 2.067-2.96 1.033-.34-4.777-5.955-3.057 3.095-.246-.224 1.455-2.416c.474-.68.813-1.09 1.094-1.395l-.646-.806s-.148-.22-.471-.18z"/><path d="M4.682 22.22a.908.942 90 00.765-.414l5.65-8.17a.908.942 90 10-1.567-1.008l-5.65 8.17a.908.942 90 00.802 1.423z" color="#000" style="font-feature-settings:normal;font-variant-alternates:normal;font-variant-caps:normal;font-variant-ligatures:normal;font-variant-numeric:normal;font-variant-position:normal;isolation:auto;mix-blend-mode:normal;shape-padding:0;text-decoration-color:#000;text-decoration-line:none;text-decoration-style:solid;text-indent:0;text-orientation:mixed;text-transform:none;white-space:normal"/><path d="M15.964 14.04L7.488 8.593s1.34 4.372 1.044 5.478.659 1.918 1.56 1.017 5.872-1.048 5.872-1.048z"/><path d="M15.964 14.04L7.488 8.593l-.482.834 8.476 5.36z"/></g>
<!-- (C) Collabora Productivity 2020, All Rights Reserved -->
</svg>