<svg width="24" height="24" xmlns="http://www.w3.org/2000/svg" xmlns:xlink="http://www.w3.org/1999/xlink"><defs><linearGradient id="a"><stop stop-color="#fff" offset="0"/><stop stop-color="#4d4d4d" offset="1"/></linearGradient><linearGradient id="b" x1="-59.825" x2="-49.057" y1="12.503" y2="5.512" gradientTransform="rotate(32.994 -28.818 118.24)" gradientUnits="userSpaceOnUse"><stop stop-color="#fff" offset="0"/><stop stop-color="#4d4d4d" offset="1"/></linearGradient><linearGradient id="c" x1="-8.78" x2="45.777" y1="3.183" y2="3.183" gradientTransform="matrix(.18035 0 0 .37732 .109 3.28)" gradientUnits="userSpaceOnUse" xlink:href="#a"/><linearGradient id="d" x1="-8.78" x2="45.777" y1="3.183" y2="3.183" gradientTransform="matrix(.18035 0 0 .37732 -1.849 6.28)" gradientUnits="userSpaceOnUse" xlink:href="#a"/><linearGradient id="e" x1="-8.78" x2="45.777" y1="3.183" y2="3.183" gradientTransform="matrix(.18035 0 0 .37732 -6.527 9.23)" gradientUnits="userSpaceOnUse" xlink:href="#a"/><linearGradient id="f" x1="-8.78" x2="45.777" y1="3.183" y2="3.183" gradientTransform="matrix(.18035 0 0 .37732 -3.78 12.357)" gradientUnits="userSpaceOnUse" xlink:href="#a"/><linearGradient id="g" x1="-8.78" x2="45.777" y1="3.183" y2="3.183" gradientTransform="matrix(.18035 0 0 .37732 -1.823 15.306)" gradientUnits="userSpaceOnUse" xlink:href="#a"/><linearGradient id="h" x1="-8.78" x2="45.777" y1="3.183" y2="3.183" gradientTransform="matrix(.18035 0 0 .37732 -3.857 18.281)" gradientUnits="userSpaceOnUse" xlink:href="#a"/></defs><path d="M17.175 14.72l1.223 7.125-6.399-3.364-6.398 3.365 1.221-7.125-5.177-5.045L8.8 8.636l3.198-6.483 3.2 6.482 7.154 1.039z" fill="url(#b)" paint-order="markers stroke fill"/><g color="#000"><path d="M0 4.094v.777h7.86c.098 0 .18-.173.18-.379v-.021c0-.206-.082-.377-.18-.377H0z" fill="url(#c)" style="font-feature-settings:normal;font-variant-alternates:normal;font-variant-caps:normal;font-variant-ligatures:normal;font-variant-numeric:normal;font-variant-position:normal;isolation:auto;mix-blend-mode:normal;shape-padding:0;text-decoration-color:#000;text-decoration-line:none;text-decoration-style:solid;text-indent:0;text-orientation:mixed;text-transform:none;white-space:normal"/><path d="M0 7.094v.777h5.902c.099 0 .18-.173.18-.379v-.021c0-.206-.081-.377-.18-.377H0z" fill="url(#d)" style="font-feature-settings:normal;font-variant-alternates:normal;font-variant-caps:normal;font-variant-ligatures:normal;font-variant-numeric:normal;font-variant-position:normal;isolation:auto;mix-blend-mode:normal;shape-padding:0;text-decoration-color:#000;text-decoration-line:none;text-decoration-style:solid;text-indent:0;text-orientation:mixed;text-transform:none;white-space:normal"/><path d="M0 10.043v.775h1.223c.098 0 .181-.17.181-.377v-.021c0-.206-.083-.377-.181-.377H0z" fill="url(#e)" style="font-feature-settings:normal;font-variant-alternates:normal;font-variant-caps:normal;font-variant-ligatures:normal;font-variant-numeric:normal;font-variant-position:normal;isolation:auto;mix-blend-mode:normal;shape-padding:0;text-decoration-color:#000;text-decoration-line:none;text-decoration-style:solid;text-indent:0;text-orientation:mixed;text-transform:none;white-space:normal"/><path d="M0 13.17v.777h3.969c.098 0 .181-.173.181-.379v-.021c0-.206-.083-.377-.181-.377H0z" fill="url(#f)" style="font-feature-settings:normal;font-variant-alternates:normal;font-variant-caps:normal;font-variant-ligatures:normal;font-variant-numeric:normal;font-variant-position:normal;isolation:auto;mix-blend-mode:normal;shape-padding:0;text-decoration-color:#000;text-decoration-line:none;text-decoration-style:solid;text-indent:0;text-orientation:mixed;text-transform:none;white-space:normal"/><path d="M0 16.119v.777h5.928c.098 0 .18-.173.18-.379v-.021c0-.206-.082-.377-.18-.377H0z" fill="url(#g)" style="font-feature-settings:normal;font-variant-alternates:normal;font-variant-caps:normal;font-variant-ligatures:normal;font-variant-numeric:normal;font-variant-position:normal;isolation:auto;mix-blend-mode:normal;shape-padding:0;text-decoration-color:#000;text-decoration-line:none;text-decoration-style:solid;text-indent:0;text-orientation:mixed;text-transform:none;white-space:normal"/><path d="M0 19.094v.777h3.893c.098 0 .181-.173.181-.379v-.021c0-.206-.083-.377-.181-.377H0z" fill="url(#h)" style="font-feature-settings:normal;font-variant-alternates:normal;font-variant-caps:normal;font-variant-ligatures:normal;font-variant-numeric:normal;font-variant-position:normal;isolation:auto;mix-blend-mode:normal;shape-padding:0;text-decoration-color:#000;text-decoration-line:none;text-decoration-style:solid;text-indent:0;text-orientation:mixed;text-transform:none;white-space:normal"/></g>
<!-- (C) Collabora Productivity 2020, All Rights Reserved -->
</svg>