<svg width="19" height="18" xmlns="http://www.w3.org/2000/svg"><path d="M10.337 0c.332.437.708.859 1.126 1.266l.99 1.608v.152l-.17.16-.16.016c-.714-.625-1.145-.978-1.295-1.06-.28-.142-.577-.099-.894.13-.123.086-.635.556-1.536 1.41L7.32 4.704c.177.188.917.9 2.22 2.135l4.57 4.33c1.275 1.21 2.142 1.964 2.598 2.264.182.122.372.13.57.023.103-.056.443-.328 1.022-.816h.161l.539.511v.153c-.563.473-1.405 1.24-2.525 2.302-1.148 1.088-1.958 1.886-2.43 2.394H13.9l-.547-.518v-.153c.515-.549.803-.871.861-.968a.45.45 0 00-.024-.541c-.316-.432-1.112-1.253-2.389-2.463l-4.57-4.33C5.907 7.77 5.153 7.072 4.971 6.93l-1.15 1.09c-.96.91-1.491 1.469-1.593 1.677-.053.113-.073.206-.056.283.037.127.168.328.394.602.247.305.515.605.804.9v.152l-.162.154-.17.008-1.735-.962A12.99 12.99 0 00.008 9.789L0 9.644c.37-.249 1.55-1.316 3.539-3.201l3.258-3.088C8.63 1.617 9.757.499 10.176 0h.16z" fill="#4D4D4D"/>
<!-- (C) Collabora Productivity 2020, All Rights Reserved -->
</svg>